<svg width="84" height="72" viewBox="0 0 84 72" fill="none" xmlns="http://www.w3.org/2000/svg">
<path d="M0.0522577 20.7977C0.95547 11.0024 9.10569 2.25489 18.6968 0.423398C27.9404 -1.34087 35.8677 2.55823 41.8754 9.33328C43.4081 8.13633 44.7342 6.51799 46.2751 5.26038C56.1104 -2.77393 70.2701 -1.4081 78.4137 8.28718C84.6903 15.7591 85.2329 25.8725 81.6036 34.6971C81.0775 35.976 80.4283 38.0469 78.835 38.1453L65.1147 38.1682C64.5705 38.3338 62.0723 42.7248 61.2478 43.4627C60.3511 44.2628 58.8725 44.294 58.0759 43.3299C56.5711 41.5098 55.4187 37.8436 54.0745 35.7333C53.9975 35.612 53.6664 35.1054 53.5532 35.1923C51.4403 40.1981 48.9946 45.0876 46.7111 50.0295C45.6374 51.8069 43.3786 51.4642 42.6721 49.5884L38.3331 29.9585L32.1499 42.9954C31.2959 44.4006 29.355 44.3891 28.4485 43.0347L23.9374 34.3757L21.7162 37.4681C21.5999 37.5862 20.8081 38.1371 20.7491 38.1371H9.04996C17.2461 50.3705 29.1124 60.0445 41.8787 67.2196C51.2419 62.1023 60.2642 55.2846 67.5391 47.4634C68.5358 46.3927 70.7733 43.2577 71.7175 42.6428C73.5075 41.4754 75.6024 43.1528 75.0681 45.1761C74.8746 45.9041 71.4847 49.6819 70.7323 50.4919C62.728 59.1296 52.8517 66.2867 42.5885 72.0009H41.4427C34.9481 68.5805 28.7108 64.3879 23.0407 59.728C16.4888 54.3418 9.5155 47.3273 5.05353 40.0866C3.89296 38.2027 1.48658 34.8856 4.87158 33.8789L18.7509 33.8527C19.2885 33.6887 21.749 29.3764 22.5375 28.6418C23.5194 27.7253 24.9881 27.7089 25.8733 28.7566C27.1126 30.2208 28.5305 34.0773 29.6337 35.9563C29.8074 36.2515 30.0042 36.6647 30.314 36.8286C32.4269 31.8228 34.8727 26.9333 37.1561 21.9914C38.1855 20.4403 39.8051 20.4501 40.9525 21.8586C42.718 28.5107 43.931 35.3529 45.5342 42.0624L51.7173 29.0255C52.4205 27.7958 54.1991 27.6105 55.1876 28.6091L59.9315 37.6452L62.2198 34.4561L63.1575 33.9215L77.1712 33.8937C78.0498 31.7916 78.817 29.6322 79.1825 27.3695C82.0069 9.93011 63.2132 -2.74441 49.129 8.60527C47.1701 10.1843 45.2014 12.8389 43.2294 14.1588C42.2983 14.7818 41.4443 14.7507 40.5427 14.0866C38.4937 12.5782 36.6955 10.1679 34.6464 8.52985C22.0015 -1.58026 4.20113 8.05435 4.29949 23.8163C4.30768 25.028 4.86174 26.9956 4.79125 28.0581C4.67487 29.8224 2.61764 30.7521 1.20791 29.7027C0.155529 28.9206 0.434197 27.4449 0.0522577 26.3594C0.17356 24.5624 -0.111665 22.5669 0.0522577 20.7977Z" fill="#A0A0A0"/>
</svg>
