<svg width="64" height="82" viewBox="0 0 64 82" fill="none" xmlns="http://www.w3.org/2000/svg">
<path d="M54.1628 0C64.7585 2.6058 63.7388 17.4442 52.8134 18.3962C53.7941 20.3036 54.3285 23.4911 53.4052 25.4848C53.2192 25.8873 52.487 26.562 52.5056 26.8866C52.5158 27.049 53.7992 29.6176 53.9835 29.7934C55.5494 31.2916 59.4522 32.5903 61.3275 34.0885C62.2981 34.8647 62.7259 35.8099 63.0979 36.9564V38.4749C62.8257 38.9095 62.8054 39.3931 62.5619 39.8784C62.3032 40.3908 61.2734 41.2803 61.2548 41.5863C61.2362 41.9195 61.5591 42.5925 61.5862 43.1099C62.2288 55.2275 61.0857 67.9031 61.5879 80.0799C61.6589 81.6745 59.5063 81.8182 59.3845 80.2439L59.3507 42.8174C59.1529 41.9212 58.8028 42.3777 58.3395 42.3101C57.9506 42.2543 56.9664 41.9516 56.6908 42.0936C55.7946 42.557 56.4405 44.9463 56.0956 45.7292C55.7506 46.5122 54.2473 46.4023 54.0275 45.4435C53.7383 44.182 53.9886 41.96 54.8307 40.9218L49.6056 37.9693V44.1279C49.6056 44.6318 49.215 45.8764 49.012 46.4039C48.6553 47.3357 48.0313 47.9191 47.6559 48.7832C49.9083 52.6437 52.5411 56.3317 54.4553 60.3681C54.3031 66.1005 52.8252 71.7754 52.0524 77.4588C50.7977 81.8114 44.9233 82.8209 42.3141 79.0974C40.3491 76.2954 41.8879 72.9541 42.1822 69.8613C40.0296 72.6159 38.4823 75.8862 36.4193 78.6899C32.0498 84.6252 24.0329 79.4813 26.7536 73.4056L36.0625 58.787C35.6753 53.7817 34.8129 48.7899 34.4273 43.788C34.3817 43.1877 34.5998 40.7764 34.1382 40.494L25.8743 37.6649L22.7037 34.5924C22.5871 34.9188 22.4822 35.3432 22.4535 35.6899C21.6452 45.6227 21.8058 56.1034 21.9394 66.0701C21.9868 69.5839 22.4383 73.3464 22.122 76.8704C21.6469 82.1632 12.869 82.8869 12.3279 76.0266C12.0742 72.8272 12.1047 69.1561 11.9897 65.9027C11.9034 63.4592 11.9795 60.9988 11.8257 58.5553L11.4908 60.4966C10.8652 65.6964 10.6504 70.9824 9.95035 76.1686C9.80493 77.2492 9.67303 78.3821 9.03215 79.3003C6.22004 83.335 -0.300385 81.1689 0.0107559 76.1838C1.85731 59.4786 2.4221 42.606 4.23652 25.9025C4.5781 22.7589 5.59945 19.6053 9.25367 19.1115C11.2507 18.8409 15.9246 18.8832 17.9859 19.0624C19.1662 19.1639 20.355 19.7625 21.2698 20.5015C24.9629 23.4759 28.306 28.0872 31.9754 31.2206L35.0953 32.4009C35.8461 28.3392 37.0061 24.1608 39.0099 20.5387C40.4083 18.009 42.3259 15.5587 45.3849 15.1867C40.9207 9.52192 43.8021 1.52696 50.7808 0.00169098H54.1543L54.1628 0ZM52.4211 2.09005C43.1156 2.17799 43.2543 16.3231 52.5631 16.2131C61.6538 16.1066 61.6369 2.00381 52.4211 2.09005ZM51.4623 24.4668C53.182 18.5991 46.4384 14.4004 42.3614 19.3245C39.4901 22.7928 38.0951 28.6706 37.1786 32.9995C39.1655 34.009 41.663 34.0107 42.561 36.4982C43.9476 40.3384 39.8317 43.2063 36.4565 41.3428L38.3081 59.2994L28.6137 74.5875C27.4081 78.3483 31.9162 80.8831 34.4273 77.704C37.3257 72.8357 40.9579 68.15 43.7768 63.2647C44.2401 62.4632 44.8607 61.6668 44.7203 60.6691L43.2898 49.2465C43.4792 48.1879 44.6273 48.1845 45.3815 47.6587C48.6367 45.3894 47.0319 39.9495 47.4225 36.5607C47.3786 36.3747 46.0985 36.0534 45.9953 35.5901C45.2665 33.2836 43.2171 30.5831 42.5965 28.3493C42.2498 27.0963 43.7903 26.332 44.6256 27.5106C45.7941 29.8103 46.6345 32.3857 48.131 34.4656C51.1562 35.8201 54.5517 38.7455 57.5346 39.9055C60.0981 40.9015 62.0867 37.8391 60.1455 35.9435C58.8316 34.6618 54.8645 33.0452 53.0975 31.8598C52.7305 31.6129 52.3315 31.4083 52.0592 31.0431L47.9231 22.1739C47.8165 21.1373 48.8074 20.6114 49.6766 21.1102L51.4623 24.4668ZM9.42784 21.303C7.47983 21.6344 6.46185 23.7668 6.43818 25.5677L2.2344 77.0192C2.5912 78.9858 4.83851 79.8008 6.4906 78.7761C7.5221 78.1369 7.62694 77.1206 7.78082 76.0181C8.88672 68.1601 9.15728 60.1381 10.1786 52.2615C10.3951 51.0203 12.8825 50.9983 13.52 51.717C14.1203 52.3917 13.8058 55.0787 13.8464 56.1153C13.9969 59.925 14.2302 63.767 14.3655 67.5767C14.4619 70.2536 14.1812 73.9365 14.5718 76.4831C15.074 79.7653 19.9931 79.5946 20.1047 76.0215C20.2163 72.4485 19.802 68.4374 19.7496 64.8898C19.5974 54.8047 19.9407 45.2422 20.4378 35.1894C20.5088 33.7672 19.802 30.3819 22.1153 30.967L27.058 35.8066L38.4738 39.7533C40.5487 39.9444 41.5328 37.298 39.6068 36.2428C37.2174 34.9357 33.3992 34.4859 30.8949 33.1466C27.1967 29.9541 23.8908 25.5152 20.1825 22.4343C19.4452 21.8221 18.8128 21.3436 17.8236 21.2506C16.0971 21.0882 11.0343 21.024 9.42446 21.2979L9.42784 21.303ZM45.5624 49.9499L46.9102 61.337C47.0235 62.8775 45.4441 64.1136 45.0957 65.2635C44.5056 67.2149 43.7345 72.7139 43.5586 74.8632C43.442 76.2887 43.4741 77.4876 44.6375 78.465C46.5128 80.0427 49.3333 79.0568 49.9979 76.7503L52.4143 61.3658C52.3517 60.7384 52.0457 60.2294 51.765 59.6883C50.4088 57.069 47.8115 52.7113 46.0951 50.3439C45.9429 50.1343 45.9192 49.8738 45.5608 49.9516L45.5624 49.9499Z" fill="#A0A0A0"/>
<path d="M17.1726 0.40076C28.6983 0.392305 29.1447 17.5524 18.3224 18.5585C5.25283 19.7743 4.79458 0.410906 17.1726 0.40076ZM16.8614 2.57705C11.3082 2.82732 8.21713 9.46443 11.7462 13.839C15.189 18.1087 22.0697 16.8845 23.7606 11.6813C25.2605 7.06492 21.6672 2.35892 16.8631 2.57536L16.8614 2.57705Z" fill="#A0A0A0"/>
</svg>
